<?xml version="1.0" standalone="no"?><!-- Generator: Gravit.io --><svg xmlns="http://www.w3.org/2000/svg" xmlns:xlink="http://www.w3.org/1999/xlink" style="isolation:isolate" viewBox="-8 0 2320 512" width="2320" height="512"><g><linearGradient id="_lgradient_0" x1="0" y1="0.5" x2="1" y2="0.5" gradientTransform="matrix(512,0,0,512,-8,0)" gradientUnits="userSpaceOnUse"><stop offset="0%" stop-opacity="1" style="stop-color:rgb(0,241,255)"/><stop offset="23.1%" stop-opacity="1" style="stop-color:rgb(0,216,255)"/><stop offset="51.38%" stop-opacity="1" style="stop-color:rgb(0,192,255)"/><stop offset="77.73%" stop-opacity="1" style="stop-color:rgb(0,178,255)"/><stop offset="100%" stop-opacity="1" style="stop-color:rgb(0,173,255)"/></linearGradient><path d=" M 504 256 C 504 397.387 389.387 512 248 512 C 106.613 512 -8 397.387 -8 256 C -8 114.613 106.613 0 248 0 C 389.387 0 504 114.613 504 256 Z " fill="url(#_lgradient_0)"/><g><path d=" M 215.086 411 L 166.902 411 C 151.344 411 138.684 398.34 138.684 382.781 L 138.684 129.219 C 138.684 113.66 151.344 101 166.902 101 L 344.027 101 C 359.59 101 372.246 113.66 372.246 129.219 L 372.246 217.82 C 372.246 226.105 378.965 232.82 387.246 232.82 C 395.531 232.82 402.246 226.105 402.246 217.82 L 402.246 129.219 C 402.246 97.117 376.129 71 344.027 71 L 166.906 71 C 134.801 71 108.684 97.117 108.684 129.219 L 108.684 382.781 C 108.684 414.883 134.805 441 166.906 441 L 215.09 441 C 223.371 441 230.09 434.285 230.09 426 C 230.09 417.715 223.371 411 215.086 411 L 215.086 411 Z " fill="rgb(255,255,255)"/><path d=" M 329.621 157.441 L 181.23 157.441 C 172.949 157.441 166.23 164.156 166.23 172.441 C 166.23 180.727 172.949 187.441 181.23 187.441 L 329.621 187.441 C 337.906 187.441 344.621 180.727 344.621 172.441 C 344.621 164.156 337.906 157.441 329.621 157.441 Z " fill="rgb(255,255,255)"/><path d=" M 344.621 230.066 C 344.621 221.785 337.906 215.066 329.621 215.066 L 181.23 215.066 C 172.949 215.066 166.23 221.785 166.23 230.066 C 166.23 238.352 172.949 245.066 181.23 245.066 L 329.621 245.066 C 337.906 245.066 344.621 238.352 344.621 230.066 Z " fill="rgb(255,255,255)"/><path d=" M 181.23 272.695 C 172.945 272.695 166.23 279.41 166.23 287.695 C 166.23 295.98 172.945 302.695 181.23 302.695 L 271.355 302.695 C 279.637 302.695 286.355 295.98 286.355 287.695 C 286.355 279.41 279.637 272.695 271.355 272.695 L 181.23 272.695 Z " fill="rgb(255,255,255)"/><path d=" M 427.594 279.766 C 410.512 262.68 382.715 262.684 365.645 279.754 L 286.547 358.672 C 284.801 360.418 283.508 362.566 282.789 364.934 L 265.566 421.641 C 263.977 426.875 265.359 432.559 269.18 436.473 C 272.043 439.406 275.93 441 279.918 441 C 281.254 441 282.598 440.82 283.922 440.453 L 342.07 424.348 C 344.563 423.656 346.832 422.332 348.66 420.508 L 427.594 341.727 C 444.676 324.645 444.676 296.848 427.594 279.766 L 427.594 279.766 Z  M 406.383 300.977 C 411.766 306.363 411.766 315.129 406.391 320.504 L 404.02 322.871 L 384.484 303.336 L 386.844 300.977 C 392.23 295.594 400.992 295.594 406.383 300.977 L 406.383 300.977 Z  M 330.262 396.488 L 302.195 404.262 L 310.402 377.254 L 363.246 324.523 L 382.785 344.063 L 330.262 396.488 Z " fill="rgb(255,255,255)"/></g></g><g transform="matrix(1,0,0,1,542,37)"><text transform="matrix(1,0,0,1,0,330.45)" style="font-family:'Ubuntu';font-weight:400;font-size:300px;font-style:normal;fill:#000000;stroke:none;">Dumb </text><text transform="matrix(1,0,0,1,890.4,330.45)" style="font-family:'Ubuntu';font-weight:400;font-size:300px;font-style:normal;fill:#00aeff;stroke:none;">Notes</text></g></svg>